<?xml version="1.0" standalone="no"?>
<!DOCTYPE svg PUBLIC "-//W3C//DTD SVG 20010904//EN"
 "http://www.w3.org/TR/2001/REC-SVG-20010904/DTD/svg10.dtd">
<svg version="1.0" xmlns="http://www.w3.org/2000/svg"
 width="1280.000000pt" height="640.000000pt" viewBox="0 0 1280.000000 640.000000"
 preserveAspectRatio="xMidYMid meet">
<metadata>
Created by potrace 1.15, written by Peter Selinger 2001-2017
</metadata>
<g transform="translate(0.000000,640.000000) scale(0.100000,-0.100000)"
fill="#000000" stroke="none">
<path d="M9934 5993 c-93 -86 -170 -160 -172 -165 -2 -4 -79 -8 -171 -8 l-168
0 -17 83 c-9 45 -24 115 -32 155 l-16 72 -2342 0 c-2402 0 -2454 -1 -2770 -41
-1629 -206 -3246 -1154 -3620 -2125 -58 -149 -79 -275 -73 -434 10 -268 105
-504 316 -786 597 -799 1941 -1494 3262 -1688 358 -53 194 -50 2806 -53 l2422
-4 6 33 c3 18 19 101 34 183 l28 150 184 2 184 3 175 -172 175 -171 205 7
c113 3 394 7 625 8 231 1 515 5 631 8 l211 5 37 29 c311 237 472 1787 361
3461 -50 746 -169 1316 -318 1517 -12 16 -37 39 -56 50 -33 21 -49 21 -605 29
-314 4 -697 8 -852 8 l-281 1 -169 -157z"/>
</g>
</svg>
