<svg id="cog" xmlns="http://www.w3.org/2000/svg" xmlns:xlink="http://www.w3.org/1999/xlink" viewBox="0 0 266.4 266.4"><defs><style>.cls-1{fill:none;}.cls-2{clip-path:url(#clip-path);}.cls-3{fill:url(#radial-gradient);}</style><clipPath id="clip-path" transform="translate(0 -166.28)"><circle class="cls-1" cx="133.2" cy="299.49" r="104.69"/></clipPath><radialGradient id="radial-gradient" cx="133.2" cy="133.2" r="133.2" gradientUnits="userSpaceOnUse"><stop offset="0.32" stop-color="#130c0e" stop-opacity="0"/><stop offset="0.67" stop-color="#130c0e" stop-opacity="0.65"/><stop offset="0.7" stop-color="#130c0e" stop-opacity="0.7"/><stop offset="1" stop-color="#130c0e" stop-opacity="0.95"/></radialGradient></defs><g class="cls-2"><polygon class="cls-3" points="266.4 133.2 228.23 138.97 265.45 149.24 226.86 150.39 262.56 165.07 224.12 161.54 257.77 180.45 220.05 172.28 251.16 195.13 214.7 182.45 242.82 208.89 208.16 191.91 232.9 221.54 200.52 200.52 221.53 232.9 191.91 208.16 208.89 242.83 182.44 214.7 195.13 251.16 172.27 220.05 180.45 257.78 161.54 224.12 165.07 262.56 150.39 226.86 149.24 265.45 138.97 228.23 133.2 266.4 127.44 228.23 117.17 265.45 116.01 226.86 101.33 262.56 104.86 224.12 85.95 257.77 94.13 220.05 71.27 251.16 83.96 214.7 57.52 242.82 74.5 208.16 44.87 232.9 65.88 200.52 33.5 221.53 58.25 191.91 23.58 208.89 51.7 182.44 15.24 195.13 46.36 172.27 8.63 180.45 42.28 161.54 3.84 165.07 39.54 150.39 0.96 149.24 38.17 138.97 0 133.2 38.17 127.44 0.96 117.17 39.54 116.01 3.84 101.33 42.28 104.86 8.63 85.95 46.36 94.13 15.24 71.27 51.71 83.96 23.58 57.52 58.25 74.5 33.5 44.87 65.89 65.88 44.87 33.5 74.5 58.25 57.52 23.58 83.96 51.7 71.28 15.24 94.13 46.36 85.95 8.63 104.86 42.28 101.33 3.84 116.02 39.54 117.17 0.96 127.44 38.17 133.2 0 138.97 38.17 149.24 0.96 150.39 39.54 165.07 3.84 161.54 42.28 180.45 8.63 172.28 46.36 195.13 15.24 182.45 51.71 208.89 23.58 191.91 58.25 221.54 33.5 200.52 65.89 232.9 44.87 208.16 74.5 242.83 57.52 214.7 83.96 251.16 71.28 220.05 94.13 257.78 85.95 224.12 104.86 262.56 101.33 226.86 116.02 265.45 117.17 228.23 127.44 266.4 133.2"/></g></svg>