<svg xmlns="http://www.w3.org/2000/svg" viewBox="0 0 99.61 100.77"><defs><style>.cls-1{fill:#231f20;}</style></defs><g id="Layer_2" data-name="Layer 2"><path class="cls-1" d="M89.34,54.07c.11-1.22.17-2.44.17-3.68s-.06-2.47-.17-3.68c9.93-2,10.27-4,10.27-4l-.19-1-.18-1s-1-1.82-11-.28A39.42,39.42,0,0,0,85.7,33.4C94.35,28.15,94,26.1,94,26.1l-.52-.91-.53-.91s-1.58-1.35-10.46,3.51a39.19,39.19,0,0,0-4.73-5.63c6.34-7.9,5.28-9.7,5.28-9.7l-.81-.67-.8-.68s-2-.73-8.64,6.88a39.72,39.72,0,0,0-6.36-3.68C69.64,4.72,68,3.4,68,3.4L67,3l-1-.36s-2.09,0-5.76,9.41a39.3,39.3,0,0,0-7.24-1.27C52.83.69,50.85,0,50.85,0h-2.1s-2,.69-2.19,10.82a39.4,39.4,0,0,0-7.25,1.27c-3.66-9.44-5.75-9.41-5.75-9.41l-1,.36-1,.36S30,4.72,33.22,14.31A40.25,40.25,0,0,0,26.85,18c-6.68-7.61-8.63-6.88-8.63-6.88l-.8.68-.81.67s-1.06,1.8,5.28,9.7a39.91,39.91,0,0,0-4.74,5.63C8.28,22.93,6.69,24.28,6.69,24.28l-.52.91-.53.91s-.38,2,8.27,7.3a38.63,38.63,0,0,0-2.52,6.92c-10-1.54-11,.28-11,.28l-.18,1-.18,1s.34,2.06,10.27,4c-.11,1.21-.18,2.44-.18,3.68s.07,2.46.18,3.68C.34,56,0,58.1,0,58.1l.18,1,.18,1s1,1.82,11,.28a38.35,38.35,0,0,0,2.52,6.92c-8.65,5.25-8.27,7.3-8.27,7.3l.53.91.52.91S8.28,77.85,17.15,73a40.57,40.57,0,0,0,4.74,5.64c-6.34,7.89-5.28,9.69-5.28,9.69l.81.67.8.68s2,.74,8.63-6.88a40.31,40.31,0,0,0,6.37,3.69c-3.25,9.58-1.64,10.9-1.64,10.9l1,.36,1,.36s2.09,0,5.75-9.41A39.4,39.4,0,0,0,46.56,90c.22,10.13,2.19,10.82,2.19,10.82h2.1s2-.69,2.2-10.82a39.3,39.3,0,0,0,7.24-1.27c3.67,9.44,5.76,9.41,5.76,9.41l1-.36,1-.36s1.62-1.32-1.64-10.9a39.43,39.43,0,0,0,6.37-3.69c6.68,7.62,8.64,6.88,8.64,6.88l.8-.68.81-.67s1.06-1.8-5.28-9.69A39.82,39.82,0,0,0,82.45,73c8.88,4.87,10.46,3.51,10.46,3.51l.53-.91.52-.91s.39-2-8.26-7.3a39.13,39.13,0,0,0,2.52-6.92c10,1.54,11-.28,11-.28l.18-1,.19-1S99.27,56,89.34,54.07Zm-62,14.54A4.55,4.55,0,1,1,29,62.4,4.54,4.54,0,0,1,27.33,68.61ZM29,38.37a4.54,4.54,0,1,1-1.66-6.21A4.55,4.55,0,0,1,29,38.37ZM49.8,17.26a4.55,4.55,0,1,1-4.54,4.55A4.55,4.55,0,0,1,49.8,17.26Zm0,66.25A4.55,4.55,0,1,1,54.35,79,4.55,4.55,0,0,1,49.8,83.51Zm0-19.59A13.54,13.54,0,1,1,63.34,50.39,13.53,13.53,0,0,1,49.8,63.92Zm28.69,3a4.55,4.55,0,1,1-1.67-6.21A4.55,4.55,0,0,1,78.49,67ZM76.82,40a4.55,4.55,0,1,1,1.67-6.21A4.55,4.55,0,0,1,76.82,40Z"/></g></svg>