<svg id="Layer_1" data-name="Layer 1" xmlns="http://www.w3.org/2000/svg" viewBox="0 0 146.51 146.65"><defs><style>.cls-1{fill:#231f20;}</style></defs><path class="cls-1" d="M144.67,91.47a73,73,0,0,0,1.84-10.42l-11.14-4.44c0-1,.08-2.11.08-3.18a62.75,62.75,0,0,0-.41-7l10.85-5.13A73.18,73.18,0,0,0,143.4,51l-12,.48A62.78,62.78,0,0,0,127,42.18l7.83-9.11a73.35,73.35,0,0,0-6.41-8.35L117.69,30a63.4,63.4,0,0,0-7.91-6.81l3.45-11.51a73,73,0,0,0-9.15-5l-7.62,9.19a61.74,61.74,0,0,0-10.23-3.1L84.7.83A75.41,75.41,0,0,0,74.43,0L71.2,11.49a62.38,62.38,0,0,0-10.85,1.34L54.1,2.57a73.21,73.21,0,0,0-9.61,3.34l1.73,11.82a61.85,61.85,0,0,0-9.56,5.81l-9.88-6.83a73.5,73.5,0,0,0-7.31,6.92l6.38,10.09a61.8,61.8,0,0,0-6.45,9.37L7.61,40.86A74.1,74.1,0,0,0,3.8,50.1l10,6.63a61.92,61.92,0,0,0-2,11.29L.07,70.78C0,71.66,0,72.54,0,73.43c0,2.47.13,4.91.36,7.32l11.8,2A61.74,61.74,0,0,0,14.93,93.9l-9.5,7.24a72.49,72.49,0,0,0,4.4,9l11.62-3a63,63,0,0,0,7,8.91l-5.73,10.47A74,74,0,0,0,30.5,133l9.41-7.44a63.57,63.57,0,0,0,9.88,5.18l-1,11.89a72.06,72.06,0,0,0,9.82,2.76l5.59-10.65a62.38,62.38,0,0,0,9.23.68c.55,0,1.1,0,1.64,0l4,11.27a72.92,72.92,0,0,0,10.22-1.49l.78-12a61.51,61.51,0,0,0,10-3.71l8.19,8.7a72.63,72.63,0,0,0,8.82-5.6l-4.16-11.26a63.25,63.25,0,0,0,7.44-7.29l11,4.62a73.19,73.19,0,0,0,5.88-8.76l-8.38-8.59a62.8,62.8,0,0,0,3.86-9.52Zm-28-48-1.16,1.58a10.84,10.84,0,0,1-3.35,3l-34,19.66a7.52,7.52,0,0,0-2.51-1.46V27a11,11,0,0,1,.92-4.41l.49-1.1A51.82,51.82,0,0,1,116.7,43.51ZM69.53,21.63l.42,1A11,11,0,0,1,70.88,27V66.3a7.33,7.33,0,0,0-2.51,1.46L34.32,48.1a11,11,0,0,1-3.35-3l-.17-.24A51.84,51.84,0,0,1,69.53,21.63ZM27.42,50.79l.25,0A10.91,10.91,0,0,1,32,52.22L66,71.87a7.63,7.63,0,0,0,0,2.91L32,94.43a10.91,10.91,0,0,1-4.28,1.4l-.25,0a52.06,52.06,0,0,1,0-45.07Zm3.38,51,.17-.24a11,11,0,0,1,3.35-3L68.37,78.89a7.33,7.33,0,0,0,2.51,1.46v39.3a11,11,0,0,1-.93,4.41l-.42,1A51.86,51.86,0,0,1,30.8,101.8Zm46.25,23.36-.49-1.1a11,11,0,0,1-.92-4.41V80.35a7.52,7.52,0,0,0,2.51-1.46l34,19.66a10.84,10.84,0,0,1,3.35,3l1.16,1.58A51.82,51.82,0,0,1,77.05,125.16Zm43.84-29.11-2-.22a10.81,10.81,0,0,1-4.28-1.4l-34-19.65a7.13,7.13,0,0,0,0-2.91l34-19.65a10.81,10.81,0,0,1,4.28-1.4l2-.22a51.9,51.9,0,0,1,0,45.45Z"/></svg>